
<?xml version="1.0" encoding="UTF-8" standalone="no"?>
<svg
   xmlns:dc="http://purl.org/dc/elements/1.1/"
   xmlns:cc="http://creativecommons.org/ns#"
   xmlns:rdf="http://www.w3.org/1999/02/22-rdf-syntax-ns#"
   xmlns:svg="http://www.w3.org/2000/svg"
   xmlns="http://www.w3.org/2000/svg"
   xmlns:sodipodi="http://sodipodi.sourceforge.net/DTD/sodipodi-0.dtd"
   xmlns:inkscape="http://www.inkscape.org/namespaces/inkscape"
   preserveAspectRatio="xMinYMin meet"
   xml:space="preserve"
   version="1.1"
   overflow="visible"
   viewBox="-2 -20 484.862 540"
   id="svg2"
   inkscape:version="0.91 r13725"
   sodipodi:docname="ShEx-orange-pee.svg"><metadata
     id="metadata3375"><rdf:RDF><cc:Work
         rdf:about=""><dc:format>image/svg+xml</dc:format><dc:type
           rdf:resource="http://purl.org/dc/dcmitype/StillImage" /><dc:title /></cc:Work></rdf:RDF></metadata><sodipodi:namedview
     pagecolor="#ffffff"
     bordercolor="#666666"
     borderopacity="1"
     objecttolerance="10"
     gridtolerance="10"
     guidetolerance="10"
     inkscape:pageopacity="0"
     inkscape:pageshadow="2"
     inkscape:window-width="1920"
     inkscape:window-height="1051"
     id="namedview3373"
     showgrid="false"
     inkscape:zoom="14.918518"
     inkscape:cx="308.8395"
     inkscape:cy="120.19578"
     inkscape:window-x="0"
     inkscape:window-y="0"
     inkscape:window-maximized="1"
     inkscape:current-layer="svg2" /><defs
     id="defs31" /><g
     id="g4"
     text-rendering="geometricPrecision"
     shape-rendering="geometricPrecision"
     image-rendering="optimizeQuality"><rect
       y="40.473"
       width="484.862"
       height="484.862"
       id="rect6" /><rect
       y="50.808"
       x="9.477"
       width="464.192"
       height="329.847"
       id="rect8"
       fill="#FFFFFF" /><path
       id="triangle"
       d="M383.476,267.343c-2.544-1.346-5.14-2.493-7.743-3.516l1.863-0.15c0,0-16.608-7.354-18.057-60.722  c-1.438-53.372,15.828-62.478,15.828-62.478l-2.48,0.109c13.045-6.69,24.265-17.267,31.669-31.216  c19.295-36.291,5.488-81.362-30.81-100.657C337.436-10.563,292.374,3.207,273.09,39.53c-7.927,14.899-10.178,31.273-7.677,46.733  l-0.851-1.306c0,0,4.373,19.365-41.032,47.55c-45.397,28.2-65.877,14.159-65.877,14.159l1.302,1.925  c-1.298-0.803-2.544-1.624-3.901-2.333c-36.306-19.294-81.38-5.509-100.667,30.804c-19.281,36.309-5.489,81.365,30.813,100.668  c27.064,14.364,58.974,10.36,81.461-7.655l-0.487,0.946c0,0,16.531-13.599,64.16,11.973c37.601,20.178,43.184,39.956,43.899,47.383  c-0.983,27.57,13.388,54.618,39.389,68.433c36.301,19.299,81.374,5.498,100.657-30.804  C433.571,331.704,419.786,286.624,383.476,267.343z M299.542,277.128c-6.018,2.129-23.203,4.487-59.389-14.921  c-39.187-21.04-45.005-38.615-45.855-43.891c0.557-6.401,0.202-12.791-0.891-19.02l0.239,0.359c0,0-3.189-17.096,41.65-44.943  c40.133-24.908,58.376-19.955,61.771-18.653c2.185,1.485,4.45,2.867,6.825,4.131c4.518,2.398,9.174,4.283,13.888,5.672  c5.52,5.257,15.678,20.178,16.733,59.413c1.078,39.535-10.533,54.779-16.865,60.168C311.122,268.399,305.022,272.34,299.542,277.128  z"
       fill="#0C479C" /><g
       id="g11"><path
         id="upperHighlight"
         d="M294.631,32.4c-21.659,23.694-22.118,58.544-1.246,78.264c-10.316-9.935-10.093-30.608,0.33-50.387   c1.342-1.774,5.224-5.961,10.898-4.055c0.569,0.194,0.951,0.245,1.17,0.213c1.284,0.278,2.601,0.439,3.96,0.381   c8.622-0.393,15.288-7.684,14.898-16.307c-0.175-3.868-1.78-7.292-4.26-9.92c20.007-13.107,42.968-14.61,52.375-6.016l0.359,0.025   C351.625,4.97,316.493,8.476,294.631,32.4z"
         fill="#ff7c1c" /></g><g
       id="g14"><path
         d="M76.205,251.381c-0.184-0.19-0.371-0.406-0.562-0.598c0.121,0.125,0.235,0.279,0.378,0.407L76.205,251.381z   "
         id="path16"
         fill="#FFFFFF" /><path
         id="midLeftHighlight"
         d="M76.894,172.52c-21.663,23.694-22.114,58.541-1.251,78.264c-10.313-9.935-10.092-30.608,0.331-50.387   c1.345-1.778,5.231-5.961,10.906-4.055c0.565,0.195,0.946,0.242,1.167,0.212c1.283,0.275,2.603,0.44,3.959,0.377   c8.623-0.392,15.288-7.684,14.899-16.303c-0.179-3.867-1.782-7.296-4.252-9.92c19.995-13.107,42.959-14.617,52.366-6.021   l0.355,0.03C133.891,145.086,98.751,148.591,76.894,172.52z"
         fill="#FC561C" /></g><g
       id="g19"><path
         d="M306.701,370.015c-0.187-0.191-0.374-0.404-0.564-0.594c0.117,0.125,0.237,0.279,0.378,0.402   L306.701,370.015z"
         id="path21"
         fill="#FFFFFF" /><path
         id="lowerHighlight"
         d="M307.39,291.145c-21.666,23.704-22.118,58.553-1.254,78.276c-10.317-9.935-10.09-30.611,0.331-50.388   c1.344-1.781,5.227-5.96,10.906-4.053c0.568,0.189,0.941,0.242,1.166,0.212c1.282,0.277,2.605,0.44,3.963,0.381   c8.617-0.396,15.28-7.692,14.891-16.32c-0.176-3.864-1.781-7.288-4.252-9.917c20.002-13.103,42.959-14.61,52.37-6.016l0.355,0.029   C364.383,263.718,329.241,267.226,307.39,291.145z"
         fill="#f0a133" /></g><!-- <g
       id="g24"><path
         id="R"
         d="M132.259,497.639h-27.878l-25.326-30h-8.171v30H48.197v-81.875h36.565c5.046,0,9.441,0.284,13.186,0.853   s7.203,1.751,10.377,3.548c3.256,1.871,5.84,4.245,7.753,7.124c1.912,2.879,2.869,6.537,2.869,10.975   c0,6.271-1.567,11.359-4.7,15.265c-3.133,3.906-7.324,7.014-12.572,9.324L132.259,497.639z M95.509,440.84   c0-2.054-0.438-3.823-1.314-5.31c-0.876-1.485-2.332-2.632-4.368-3.438c-1.426-0.55-3.015-0.898-4.767-1.045   s-3.931-0.221-6.538-0.221h-7.638v22.063h6.538c3.178,0,5.876-0.174,8.097-0.522c2.22-0.348,4.104-1.091,5.651-2.229   c1.467-1.026,2.557-2.255,3.27-3.686S95.509,443.15,95.509,440.84z"
         fill="#FFFFFF" /><path
         id="D"
         d="M289.092,456.783c0,7.625-1.854,14.453-5.56,20.483s-8.39,10.658-14.051,13.884   c-4.725,2.75-9.866,4.519-15.425,5.307c-5.56,0.788-11.476,1.182-17.747,1.182h-28.468v-81.875h28.224   c6.394,0,12.38,0.367,17.96,1.1c5.58,0.733,10.813,2.512,15.701,5.334c5.986,3.446,10.71,8.093,14.172,13.939   S289.092,448.865,289.092,456.783z M265.655,456.646c0-5.389-1.03-9.999-3.09-13.83c-2.061-3.83-5.231-6.827-9.515-8.991   c-3.101-1.539-6.354-2.383-9.76-2.529s-7.476-0.22-12.207-0.22h-0.429v51.25h0.429c5.139,0,9.473-0.082,13.002-0.247   c3.528-0.165,6.884-1.146,10.065-2.942c3.753-2.126,6.608-5.059,8.566-8.798S265.655,462.035,265.655,456.646z"
         fill="#FFFFFF" /><path
         id="F"
         d="M432.269,431.389h-38.188v15.438h35.125v15.625h-35.125v35.188h-22.688v-81.875h60.875V431.389z"
         fill="#FFFFFF" /></g> --></g><path
     style="fill:none;stroke:#fc561c;stroke-width:15;stroke-linecap:butt;stroke-linejoin:miter;stroke-miterlimit:4;stroke-dasharray:none;stroke-opacity:1"
     d="M 178.97591,274.27064 C 136.1819,307.77141 88.871567,302.45014 58.045193,270.34928 31.145304,242.33724 16.480724,176.59407 77.274246,138.47557 132.1949,104.03945 159.48772,155.20648 215.02146,121.47855 274.40062,85.415142 225.39118,45.251148 277.49853,10.675496 379.58074,-57.060801 482.60752,71.722019 380.89625,147.47222 c -46.93848,34.95777 -87.87289,-15.06184 -135.9152,17.25147 -58.42014,39.29345 -14.87126,69.51741 -66.00514,109.54695 z"
     id="path3010"
     transform="translate(0,-1.1250848e-5)"
     inkscape:connector-curvature="0"
     sodipodi:nodetypes="ssssssss" /><text
     xml:space="preserve"
     style="font-style:normal;font-variant:normal;font-weight:bold;font-stretch:normal;font-size:130px;line-height:100%;font-family:'Noto Sans CJK JP';-inkscape-font-specification:'Noto Sans CJK JP Bold';text-align:end;letter-spacing:23.19002914px;word-spacing:0px;text-anchor:end;fill:#ffffff;fill-opacity:1;stroke:none"
     x="427.07321"
     y="502.98257"
     id="text3798"
     sodipodi:linespacing="100%"><tspan
       id="tspan3800"
       x="427.07321"
       y="502.98257"
       style="font-style:normal;font-variant:normal;font-weight:bold;font-stretch:normal;font-family:'Noto Sans CJK JP';-inkscape-font-specification:'Noto Sans CJK JP Bold';letter-spacing:23.19002914px">x</tspan></text>
<text
     xml:space="preserve"
     style="font-style:normal;font-variant:normal;font-weight:bold;font-stretch:normal;font-size:130px;line-height:100%;font-family:'Noto Sans CJK JP';-inkscape-font-specification:'Noto Sans CJK JP Bold';text-align:end;letter-spacing:23.19002914px;word-spacing:0px;text-anchor:end;fill:#fc561c;fill-opacity:1;stroke:none;"
     x="137.61754"
     y="502.98676"
     id="text3434"
     sodipodi:linespacing="100%"><tspan
       id="tspan3436"
       x="137.61754"
       y="502.98676"
       style="font-style:normal;font-variant:normal;font-weight:bold;font-stretch:normal;font-family:'Noto Sans CJK JP';-inkscape-font-specification:'Noto Sans CJK JP Bold';letter-spacing:23.19002914px;fill:#fc561c;fill-opacity:1;">S</tspan></text>
<text
     xml:space="preserve"
     style="font-style:normal;font-variant:normal;font-weight:bold;font-stretch:normal;font-size:130px;line-height:100%;font-family:'Noto Sans CJK JP';-inkscape-font-specification:'Noto Sans CJK JP Bold';text-align:end;letter-spacing:23.19002914px;word-spacing:0px;text-anchor:end;fill:#ffffff;fill-opacity:1;stroke:none"
     x="239.07321"
     y="502.98257"
     id="text4288"
     sodipodi:linespacing="100%"><tspan
       id="tspan4290"
       x="239.07321"
       y="502.98257"
       style="font-style:normal;font-variant:normal;font-weight:bold;font-stretch:normal;font-family:'Noto Sans CJK JP';-inkscape-font-specification:'Noto Sans CJK JP Bold';letter-spacing:23.19002914px">h</tspan></text>
<text
     xml:space="preserve"
     style="font-style:normal;font-variant:normal;font-weight:bold;font-stretch:normal;font-size:130px;line-height:100%;font-family:'Noto Sans CJK JP';-inkscape-font-specification:'Noto Sans CJK JP Bold';text-align:end;letter-spacing:23.19002914px;word-spacing:0px;text-anchor:end;fill:#f0a133;fill-opacity:1;stroke:none"
     x="340.38565"
     y="502.98257"
     id="text3438"
     sodipodi:linespacing="100%"><tspan
       id="tspan3440"
       x="340.38565"
       y="502.98257"
       style="font-style:normal;font-variant:normal;font-weight:bold;font-stretch:normal;font-family:'Noto Sans CJK JP';-inkscape-font-specification:'Noto Sans CJK JP Bold';letter-spacing:23.19002914px">E</tspan></text>
<g
     inkscape:groupmode="layer"
     id="layer1"
     inkscape:label="template"
     style="display:none"><text
       xml:space="preserve"
       style="font-style:normal;font-variant:normal;font-weight:bold;font-stretch:normal;font-size:130px;line-height:100%;font-family:IPAPGothic;-inkscape-font-specification:IPAPGothic;text-align:end;letter-spacing:23.19002914px;word-spacing:0px;text-anchor:end;fill:#ffffff;fill-opacity:1;stroke:none"
       x="427.07321"
       y="511.36176"
       id="text4294"
       sodipodi:linespacing="100%"><tspan
         id="tspan4296"
         x="427.07321"
         y="511.36176"
         style="font-style:normal;font-variant:normal;font-weight:bold;font-stretch:normal;font-family:IPAPGothic;-inkscape-font-specification:IPAPGothic;letter-spacing:23.19002914px">ShEx</tspan></text>
</g><path
     style="fill:none;stroke:#f0a133;stroke-width:15;stroke-linecap:butt;stroke-linejoin:miter;stroke-miterlimit:4;stroke-dasharray:none;stroke-opacity:0.94117647"
     d="m 255.34754,64.455891 c 0.26832,-35.604214 37.78982,-72.3210635 78.14326,-73.7523115 48.76453,-1.7295705 95.62193,28.6562935 95.40653,85.9609555 -0.28181,74.971925 -52.05117,53.191555 -52.00454,129.336605 0.0484,79.0762 54.42385,48.08384 54.81559,128.42106 0.49641,101.80191 -163.74018,117.92575 -165.54131,-2.18493 -1.14609,-76.42871 53.13448,-43.95151 52.06823,-126.97142 -0.9951,-77.47967 -63.59301,-47.22869 -62.88776,-140.809959 z"
     id="path3010-5"
     inkscape:connector-curvature="0"
     sodipodi:nodetypes="ssssssss" /><path
     style="opacity:1;fill:#000000;fill-opacity:1;fill-rule:nonzero;stroke:none;stroke-width:1;stroke-linejoin:round;stroke-miterlimit:4;stroke-dasharray:none;stroke-dashoffset:0;stroke-opacity:1"
     id="path5595"
     sodipodi:type="arc"
     sodipodi:cx="324.29526"
     sodipodi:cy="352.20834"
     sodipodi:rx="75.476662"
     sodipodi:ry="77.085403"
     sodipodi:start="1.644163"
     sodipodi:end="2.0338301"
     sodipodi:open="true"
     d="m 318.76275,429.08638 a 75.476662,77.085403 0 0 1 -28.18024,-7.90961"
     transform="matrix(0.99819038,-0.06013293,0.06013293,0.99819038,0,0)" /></svg>
