<?xml version="1.0" encoding="UTF-8" standalone="no"?>
<!-- Generated by graphviz version 2.43.0 (0)
-->

<!-- Title: %3 Pages: 1 -->

<svg
   width="836.534pt"
   height="318.10712pt"
   viewBox="0 0 836.25228 317.71918"
   version="1.1"
   id="svg3069"
   sodipodi:docname="Issue-schema-image.svg"
   inkscape:version="1.1.2 (0a00cf5339, 2022-02-04)"
   xmlns:inkscape="http://www.inkscape.org/namespaces/inkscape"
   xmlns:sodipodi="http://sodipodi.sourceforge.net/DTD/sodipodi-0.dtd"
   xmlns="http://www.w3.org/2000/svg"
   xmlns:svg="http://www.w3.org/2000/svg">
  <defs
     id="defs3073" />
  <sodipodi:namedview
     id="namedview3071"
     pagecolor="#ffffff"
     bordercolor="#666666"
     borderopacity="1.0"
     inkscape:pageshadow="2"
     inkscape:pageopacity="0.0"
     inkscape:pagecheckerboard="0"
     inkscape:document-units="pt"
     showgrid="false"
     inkscape:zoom="1.2351878"
     inkscape:cx="508.4247"
     inkscape:cy="-8.5007314"
     inkscape:window-width="1461"
     inkscape:window-height="970"
     inkscape:window-x="953"
     inkscape:window-y="316"
     inkscape:window-maximized="0"
     inkscape:current-layer="svg3069"
     fit-margin-top="0"
     fit-margin-left="0"
     fit-margin-right="0"
     fit-margin-bottom="0" />
  <text
     text-anchor="middle"
     x="33.264423"
     y="223.77878"
     font-family="Times, serif"
     font-size="12.1172px"
     id="text2884"
     transform="scale(0.86551685,1.155379)"
     style="stroke-width:0.865517">Namespaces:</text>
  <text
     text-anchor="middle"
     x="59.22118"
     y="236.76152"
     font-family="Times, serif"
     font-size="12.1172px"
     id="text2886"
     transform="scale(0.86551685,1.155379)"
     style="stroke-width:0.865517">ex: http://ex.example/#</text>
  <text
     text-anchor="middle"
     x="72.199577"
     y="249.74426"
     font-family="Times, serif"
     font-size="12.1172px"
     id="text2888"
     transform="scale(0.86551685,1.155379)"
     style="stroke-width:0.865517">foaf: http://xmlns.com/foaf/</text>
  <text
     text-anchor="middle"
     x="111.13473"
     y="262.72699"
     font-family="Times, serif"
     font-size="12.1172px"
     id="text2890"
     transform="scale(0.86551685,1.155379)"
     style="stroke-width:0.865517">xsd: http://www.w3.org/2001/XMLSchema#</text>
  <g
     id="node1"
     class="node"
     transform="matrix(0.74911937,0,0,1,-33.02867,401.31903)">
    <title
       id="title2892">Rhttp://a.example/Issue1</title>
    <ellipse
       fill="none"
       stroke="#0000ff"
       cx="119.59"
       cy="-242"
       rx="75"
       ry="18"
       id="ellipse2894" />
    <text
       text-anchor="middle"
       x="119.59"
       y="-238.3"
       font-family="Times, serif"
       font-size="14px"
       id="text2896">http://a.example/Issue1</text>
  </g>
  <ellipse
     fill="none"
     stroke="#0000ff"
     cx="229.43965"
     cy="196.31801"
     rx="56.183952"
     ry="18"
     id="ellipse2901"
     style="stroke-width:0.865517" />
  <text
     text-anchor="middle"
     x="265.08975"
     y="173.11894"
     font-family="Times, serif"
     font-size="12.1172px"
     id="text2903"
     transform="scale(0.86551684,1.155379)"
     style="stroke-width:0.865517">http://a.example/User2</text>
  <path
     fill="none"
     stroke="#000000"
     d="m 99.88451,168.65289 c 22.06485,6.00472 48.70818,13.26317 71.2749,19.39987"
     id="path2908"
     style="stroke-width:0.76223" />
  <polygon
     fill="#000000"
     stroke="#000000"
     points="384.73,-221.52 394.37,-217.13 384.09,-214.55 "
     id="polygon2910"
     transform="matrix(0.58785927,0,0,1.0035643,-54.55971,406.92003)" />
  <text
     text-anchor="middle"
     x="182.97577"
     y="128.95795"
     font-family="Times, serif"
     font-size="10.7532px"
     id="text2912"
     transform="scale(0.76535706,1.3065797)"
     style="stroke-width:0.768085">ex:reportedBy</text>
  <g
     id="node3"
     class="node"
     transform="translate(-432.56418,401.31903)">
    <title
       id="title2915">Rhttp://a.example/Thompson.J</title>
    <ellipse
       fill="none"
       stroke="#0000ff"
       cx="920.09998"
       cy="-273"
       rx="90"
       ry="18"
       id="ellipse2917" />
    <text
       text-anchor="middle"
       x="920.09998"
       y="-269.29999"
       font-family="Times, serif"
       font-size="14px"
       id="text2919">http://a.example/Thompson.J</text>
  </g>
  <g
     id="edge2"
     class="edge"
     transform="matrix(0.51463419,0,0,1.0042787,-8.0440403,397.935)">
    <title
       id="title2922">Rhttp://a.example/Issue1-&gt;Rhttp://a.example/Thompson.J</title>
    <path
       fill="none"
       stroke="#000000"
       d="m 234.62,-247.06 c 7.63,-0.32 15.21,-0.64 22.56,-0.94 176.79,-7.22 380.18,-14.79 514.33,-19.69"
       id="path2924" />
    <polygon
       fill="#000000"
       stroke="#000000"
       points="771.99,-264.2 771.73,-271.2 781.86,-268.06 "
       id="polygon2926" />
    <text
       text-anchor="middle"
       x="495.82001"
       y="-264.79999"
       font-family="Times, serif"
       font-size="14px"
       id="text2928">ex:reproducedBy</text>
  </g>
  <g
     id="edge6"
     class="edge"
     transform="matrix(0.52902328,0,0,1.0021143,-34.68899,401.82759)">
    <title
       id="title2931">Rhttp://a.example/User2-&gt;Rhttp://a.example/Thompson.J</title>
    <path
       fill="none"
       stroke="#000000"
       d="m 581.7,-220.38 c 51.22,-7.54 117.76,-17.45 176.76,-26.62 20.6,-3.2 42.68,-6.72 63.67,-10.1"
       id="path2933" />
    <polygon
       fill="#000000"
       stroke="#000000"
       points="822.69,-253.65 821.58,-260.56 832.01,-258.7 "
       id="polygon2935" />
    <text
       text-anchor="middle"
       x="694.96002"
       y="-250.8"
       font-family="Times, serif"
       font-size="14px"
       id="text2937">ex:representative</text>
  </g>
  <g
     id="node4"
     class="node"
     transform="translate(-432.56383,401.31903)">
    <title
       id="title2940">LBob</title>
    <polygon
       fill="none"
       stroke="#000000"
       points="947.1,-230 947.1,-194 893.1,-194 893.1,-230 "
       id="polygon2942" />
    <text
       text-anchor="middle"
       x="920.09998"
       y="-208.3"
       font-family="Times, serif"
       font-size="14px"
       id="text2944">Bob</text>
  </g>
  <g
     id="edge3"
     class="edge"
     transform="matrix(0.58401886,0,0,1.0093321,-62.8317,403.32224)">
    <title
       id="title2947">Rhttp://a.example/User2-&gt;LBob</title>
    <path
       fill="none"
       stroke="#000000"
       d="m 613.72,-208.08 c 45.21,-0.12 97.39,-0.39 144.74,-0.92 42.6,-0.48 91.55,-1.45 124.1,-2.16"
       id="path2949" />
    <polygon
       fill="#000000"
       stroke="#000000"
       points="882.87,-214.67 892.94,-211.39 883.02,-207.67 "
       id="polygon2951" />
    <text
       text-anchor="middle"
       x="694.96002"
       y="-212.8"
       font-family="Times, serif"
       font-size="14px"
       id="text2953">foaf:givenName</text>
  </g>
  <g
     id="node5"
     class="node"
     transform="translate(-432.56383,401.31903)">
    <title
       id="title2956">LSmith</title>
    <polygon
       fill="none"
       stroke="#000000"
       points="949.6,-175 949.6,-139 890.6,-139 890.6,-175 "
       id="polygon2958" />
    <text
       text-anchor="middle"
       x="920.09998"
       y="-153.3"
       font-family="Times, serif"
       font-size="14px"
       id="text2960">Smith</text>
  </g>
  <g
     id="edge4"
     class="edge"
     transform="matrix(0.5666443,0,0,1.0030043,-47.5236,401.85851)">
    <title
       id="title2963">Rhttp://a.example/User2-&gt;LSmith</title>
    <path
       fill="none"
       stroke="#000000"
       d="m 581.52,-195.66 c 16.55,2.3 33.78,4.62 49.94,6.66 88.98,11.23 193.71,22.35 248.97,28.06"
       id="path2965" />
    <polygon
       fill="#000000"
       stroke="#000000"
       points="880.18,-157.44 880.9,-164.41 890.48,-159.9 "
       id="polygon2967" />
    <text
       text-anchor="middle"
       x="694.96002"
       y="-192.8"
       font-family="Times, serif"
       font-size="14px"
       id="text2969">foaf:familyName</text>
  </g>
  <g
     id="node6"
     class="node"
     transform="translate(-423.56689,401.31903)">
    <title
       id="title2972">Rmail:bob@example.org</title>
    <ellipse
       fill="none"
       stroke="#0000ff"
       cx="920.09998"
       cy="-102"
       rx="70"
       ry="18"
       id="ellipse2974" />
    <text
       text-anchor="middle"
       x="920.09998"
       y="-98.300003"
       font-family="Times, serif"
       font-size="14px"
       id="text2976">mail:bob@example.org</text>
  </g>
  <g
     id="edge5"
     class="edge"
     transform="matrix(0.58162967,0,0,1.0024279,-43.56166,401.68633)">
    <title
       id="title2979">Rhttp://a.example/User2-&gt;Rmail:bob@example.org</title>
    <path
       fill="none"
       stroke="#000000"
       d="m 534.44,-190.93 c 26.64,11.53 63.45,26.33 97.02,35.93 62.06,17.75 133.41,30.94 189.52,39.72"
       id="path2981" />
    <polygon
       fill="#000000"
       stroke="#000000"
       points="821.57,-118.73 830.91,-113.74 820.5,-111.81 "
       id="polygon2983" />
    <text
       text-anchor="middle"
       x="694.96002"
       y="-158.8"
       font-family="Times, serif"
       font-size="14px"
       id="text2985">foaf:mbox</text>
  </g>
  <g
     id="node7"
     class="node"
     transform="matrix(0.76242934,0,0,1,-233.14635,401.31903)">
    <title
       id="title2988">LJoe</title>
    <polygon
       fill="none"
       stroke="#000000"
       points="1305.12,-365 1305.12,-401 1359.12,-401 1359.12,-365 "
       id="polygon2990" />
    <text
       text-anchor="middle"
       x="1332.12"
       y="-379.29999"
       font-family="Times, serif"
       font-size="14px"
       id="text2992">Joe</text>
  </g>
  <g
     id="edge7"
     class="edge"
     transform="matrix(0.76242934,0,0,1,-233.14635,401.31903)">
    <title
       id="title2995">Rhttp://a.example/Thompson.J-&gt;LJoe</title>
    <path
       fill="none"
       stroke="#000000"
       d="m 965.64,-290.17 c 31.98,-11.93 76.29,-27.63 116.09,-38.83 74.89,-21.08 164.39,-38.65 213.22,-47.6"
       id="path2997" />
    <polygon
       fill="#000000"
       stroke="#000000"
       points="1305.02,-378.44 1295.8,-373.2 1294.55,-380.09 "
       id="polygon2999" />
    <text
       text-anchor="middle"
       x="1140.73"
       y="-360.79999"
       font-family="Times, serif"
       font-size="14px"
       id="text3001">foaf:givenName</text>
  </g>
  <g
     id="node8"
     class="node"
     transform="matrix(0.76242934,0,0,1,-233.14635,401.31903)">
    <title
       id="title3004">LJoseph</title>
    <polygon
       fill="none"
       stroke="#000000"
       points="1300.12,-310 1300.12,-346 1364.12,-346 1364.12,-310 "
       id="polygon3006" />
    <text
       text-anchor="middle"
       x="1332.12"
       y="-324.29999"
       font-family="Times, serif"
       font-size="14px"
       id="text3008">Joseph</text>
  </g>
  <g
     id="edge8"
     class="edge"
     transform="matrix(0.76242934,0,0,1,-233.14635,401.31903)">
    <title
       id="title3011">Rhttp://a.example/Thompson.J-&gt;LJoseph</title>
    <path
       fill="none"
       stroke="#000000"
       d="m 1018.79,-286.1 c 86.38,-11.59 208.17,-27.93 271.1,-36.37"
       id="path3013" />
    <polygon
       fill="#000000"
       stroke="#000000"
       points="1299.84,-323.8 1290.39,-319.01 1289.46,-325.94 "
       id="polygon3015" />
    <text
       text-anchor="middle"
       x="1140.73"
       y="-313.79999"
       font-family="Times, serif"
       font-size="14px"
       id="text3017">foaf:givenName</text>
  </g>
  <g
     id="node9"
     class="node"
     transform="matrix(0.76242934,0,0,1,-233.14635,401.31903)">
    <title
       id="title3020">LThompson</title>
    <polygon
       fill="none"
       stroke="#000000"
       points="1287.12,-255 1287.12,-291 1377.12,-291 1377.12,-255 "
       id="polygon3022" />
    <text
       text-anchor="middle"
       x="1332.12"
       y="-269.29999"
       font-family="Times, serif"
       font-size="14px"
       id="text3024">Thompson</text>
  </g>
  <g
     id="edge9"
     class="edge"
     transform="matrix(0.76242934,0,0,1,-233.14635,401.31903)">
    <title
       id="title3027">Rhttp://a.example/Thompson.J-&gt;LThompson</title>
    <path
       fill="none"
       stroke="#000000"
       d="m 1063.93,-273 c 73.6,0 159.02,0 213.08,0"
       id="path3029" />
    <polygon
       fill="#000000"
       stroke="#000000"
       points="1287.06,-273 1277.06,-269.5 1277.06,-276.5 "
       id="polygon3031" />
    <text
       text-anchor="middle"
       x="1140.73"
       y="-276.79999"
       font-family="Times, serif"
       font-size="14px"
       id="text3033">foaf:familyName</text>
  </g>
  <g
     id="node10"
     class="node"
     transform="matrix(0.76242934,0,0,1,-233.14635,401.31903)">
    <title
       id="title3036">Rtel:+456</title>
    <ellipse
       fill="none"
       stroke="#0000ff"
       cx="1332.12"
       cy="-218"
       rx="30"
       ry="18"
       id="ellipse3038" />
    <text
       text-anchor="middle"
       x="1332.12"
       y="-214.3"
       font-family="Times, serif"
       font-size="14px"
       id="text3040">tel:+456</text>
  </g>
  <g
     id="edge10"
     class="edge"
     transform="matrix(0.76242934,0,0,1,-233.14635,401.31903)">
    <title
       id="title3043">Rhttp://a.example/Thompson.J-&gt;Rtel:+456</title>
    <path
       fill="none"
       stroke="#000000"
       d="m 1018.79,-259.9 c 79.48,10.67 188.93,25.35 254.93,34.2"
       id="path3045" />
    <polygon
       fill="#000000"
       stroke="#000000"
       points="1283.93,-224.33 1273.55,-222.19 1274.49,-229.13 "
       id="polygon3047" />
    <text
       text-anchor="middle"
       x="1140.73"
       y="-253.8"
       font-family="Times, serif"
       font-size="14px"
       id="text3049">foaf:phone</text>
  </g>
  <g
     id="node11"
     class="node"
     transform="matrix(0.76242934,0,0,1,-233.14635,401.31903)">
    <title
       id="title3052">Rmail:joe@example.org</title>
    <ellipse
       fill="none"
       stroke="#0000ff"
       cx="1332.12"
       cy="-164"
       rx="70"
       ry="18"
       id="ellipse3054" />
    <text
       text-anchor="middle"
       x="1332.12"
       y="-160.3"
       font-family="Times, serif"
       font-size="14px"
       id="text3056">mail:joe@example.org</text>
  </g>
  <g
     id="edge11"
     class="edge"
     transform="matrix(0.87220101,0,0,0.99912021,-345.05265,401.13104)">
    <title
       id="title3059">Rhttp://a.example/Thompson.J-&gt;Rmail:joe@example.org</title>
    <path
       fill="none"
       stroke="#000000"
       d="m 1019.19,-259.91 c 15.67,4.73 31.12,11.17 44.54,19.91 11.17,7.28 6.75,16.85 18,24 38.87,24.72 87.38,37.93 131.26,44.91"
       id="path3061" />
    <polygon
       fill="#000000"
       stroke="#000000"
       points="1212.75,-167.59 1213.78,-174.51 1223.16,-169.57 "
       id="polygon3063" />
    <text
       text-anchor="middle"
       x="1140.73"
       y="-219.8"
       font-family="Times, serif"
       font-size="14px"
       id="text3065">foaf:mbox</text>
  </g>
</svg>
