<?xml version="1.0" encoding="UTF-8" standalone="no"?>
<!-- Generated by graphviz version 2.43.0 (0)
-->

<!-- Title: %3 Pages: 1 -->

<svg
   width="836.534pt"
   height="318.10712pt"
   viewBox="0 0 836.25228 317.71918"
   version="1.1"
   id="svg3069"
   sodipodi:docname="Issue-schema-image.svg"
   inkscape:version="1.1.2 (0a00cf5339, 2022-02-04)"
   xmlns:inkscape="http://www.inkscape.org/namespaces/inkscape"
   xmlns:sodipodi="http://sodipodi.sourceforge.net/DTD/sodipodi-0.dtd"
   xmlns="http://www.w3.org/2000/svg"
   xmlns:svg="http://www.w3.org/2000/svg">
  <defs
     id="defs3073" />
  <sodipodi:namedview
     id="namedview3071"
     pagecolor="#ffffff"
     bordercolor="#666666"
     borderopacity="1.0"
     inkscape:pageshadow="2"
     inkscape:pageopacity="0.0"
     inkscape:pagecheckerboard="0"
     inkscape:document-units="pt"
     showgrid="false"
     inkscape:zoom="1.9056976"
     inkscape:cx="545.46955"
     inkscape:cy="102.58711"
     inkscape:window-width="3840"
     inkscape:window-height="2136"
     inkscape:window-x="0"
     inkscape:window-y="0"
     inkscape:window-maximized="1"
     inkscape:current-layer="layer3"
     fit-margin-top="0"
     fit-margin-left="0"
     fit-margin-right="0"
     fit-margin-bottom="0" />
  <g
     inkscape:groupmode="layer"
     id="layer6"
     inkscape:label="webarch"
     style="display:none">
    <text
       text-anchor="middle"
       x="33.264423"
       y="223.77878"
       font-family="Times, serif"
       font-size="12.1172px"
       id="text2884"
       transform="scale(0.86551682,1.155379)"
       style="display:inline;stroke-width:0.865517">Namespaces:</text>
    <text
       text-anchor="middle"
       x="59.22118"
       y="236.76152"
       font-family="Times, serif"
       font-size="12.1172px"
       id="text2886"
       transform="scale(0.86551682,1.155379)"
       style="display:inline;stroke-width:0.865517">ex: http://ex.example/#</text>
    <text
       text-anchor="middle"
       x="72.199577"
       y="249.74426"
       font-family="Times, serif"
       font-size="12.1172px"
       id="text2888"
       transform="scale(0.86551682,1.155379)"
       style="display:inline;stroke-width:0.865517">foaf: http://xmlns.com/foaf/</text>
    <text
       text-anchor="middle"
       x="111.13473"
       y="262.72699"
       font-family="Times, serif"
       font-size="12.1172px"
       id="text2890"
       transform="scale(0.86551682,1.155379)"
       style="display:inline;stroke-width:0.865517">xsd: http://www.w3.org/2001/XMLSchema#</text>
    <ellipse
       fill="none"
       stroke="#0000ff"
       cx="119.59"
       cy="-242"
       rx="75"
       ry="18"
       id="ellipse2894"
       style="display:inline"
       transform="matrix(0.74911937,0,0,1,-33.02867,401.31903)" />
    <ellipse
       fill="none"
       stroke="#0000ff"
       cx="229.43965"
       cy="196.31801"
       rx="56.183952"
       ry="18"
       id="ellipse2901"
       style="display:inline;stroke-width:0.865517" />
    <ellipse
       fill="none"
       stroke="#0000ff"
       cx="496.53308"
       cy="299.31903"
       rx="70"
       ry="18"
       id="ellipse2974"
       style="display:inline" />
    <polygon
       fill="none"
       stroke="#000000"
       points="949.6,-175 949.6,-139 890.6,-139 890.6,-175 "
       id="polygon2958"
       transform="translate(-432.56383,401.31903)"
       style="display:inline" />
    <polygon
       fill="none"
       stroke="#000000"
       points="947.1,-230 947.1,-194 893.1,-194 893.1,-230 "
       id="polygon2942"
       transform="translate(-432.56383,401.31903)"
       style="display:inline" />
    <ellipse
       fill="none"
       stroke="#0000ff"
       cx="487.5358"
       cy="128.31903"
       rx="90"
       ry="18"
       id="ellipse2917"
       style="display:inline" />
    <polygon
       fill="none"
       stroke="#000000"
       points="1305.12,-365 1305.12,-401 1359.12,-401 1359.12,-365 "
       id="polygon2990"
       transform="matrix(0.76242933,0,0,1,-233.14635,401.31903)"
       style="display:inline" />
    <polygon
       fill="none"
       stroke="#000000"
       points="1364.12,-346 1364.12,-310 1300.12,-310 1300.12,-346 "
       id="polygon3006"
       transform="matrix(0.76242933,0,0,1,-233.14635,401.31903)"
       style="display:inline" />
    <polygon
       fill="none"
       stroke="#000000"
       points="1287.12,-255 1287.12,-291 1377.12,-291 1377.12,-255 "
       id="polygon3022"
       transform="matrix(0.76242933,0,0,1,-233.14635,401.31903)"
       style="display:inline" />
    <ellipse
       fill="none"
       stroke="#0000ff"
       cx="782.50098"
       cy="183.31903"
       rx="22.872879"
       ry="18"
       id="ellipse3038"
       style="display:inline;stroke-width:0.873172" />
    <ellipse
       fill="none"
       stroke="#0000ff"
       cx="782.50098"
       cy="237.31903"
       rx="53.370052"
       ry="18"
       id="ellipse3054"
       style="display:inline;stroke-width:0.873172" />
  </g>
  <g
     inkscape:groupmode="layer"
     id="layer4"
     inkscape:label="labeled"
     style="display:none">
    <text
       text-anchor="middle"
       x="668.39624"
       y="209.14494"
       font-family="Times, serif"
       font-size="12.2244px"
       id="text3001"
       transform="matrix(0.83315555,-0.26130655,0.34272887,1.0927644,0,0)"
       style="display:inline;stroke-width:0.873172">foaf:givenName</text>
    <text
       text-anchor="middle"
       x="729.04266"
       y="164.1601"
       font-family="Times, serif"
       font-size="12.2244px"
       id="text3017"
       transform="matrix(0.87317205,-0.13166136,0,1.1452497,0,0)"
       style="display:inline;stroke-width:0.873172">foaf:givenName</text>
    <text
       text-anchor="middle"
       x="729.04266"
       y="108.72654"
       font-family="Times, serif"
       font-size="12.2244px"
       id="text3033"
       transform="scale(0.87317197,1.1452497)"
       style="display:inline;stroke-width:0.873172">foaf:familyName</text>
    <text
       text-anchor="middle"
       x="729.35974"
       y="51.059223"
       font-family="Times, serif"
       font-size="12.2244px"
       id="text3049"
       transform="matrix(0.87317205,0.13035009,0,1.1452497,0,0)"
       style="display:inline;stroke-width:0.873172">foaf:phone</text>
    <text
       text-anchor="middle"
       x="680.25299"
       y="-95.849571"
       font-family="Times, serif"
       font-size="13.0691px"
       id="text3065"
       transform="matrix(0.93432804,0.44434739,0,1.0702879,0,0)"
       style="display:inline;stroke-width:0.933506">foaf:mbox</text>
    <text
       text-anchor="middle"
       x="473.46347"
       y="88.736473"
       font-family="Times, serif"
       font-size="10.69px"
       id="text2985"
       transform="matrix(0.76172239,0.2978113,0,1.3128143,0,0)"
       style="display:inline;stroke-width:0.763572">foaf:mbox</text>
    <text
       text-anchor="middle"
       x="461.99908"
       y="110.22935"
       font-family="Times, serif"
       font-size="10.5544px"
       id="text2969"
       transform="matrix(0.75162959,0.15090171,0,1.3304426,0,0)"
       style="display:inline;stroke-width:0.753888">foaf:familyName</text>
    <text
       text-anchor="middle"
       x="450.9682"
       y="143.41399"
       font-family="Times, serif"
       font-size="10.7488px"
       id="text2953"
       transform="scale(0.7606702,1.3146302)"
       style="display:inline;stroke-width:0.767769">foaf:givenName</text>
    <text
       text-anchor="middle"
       x="458.26285"
       y="197.91101"
       font-family="Times, serif"
       font-size="10.1935px"
       id="text2937"
       transform="matrix(0.72657215,-0.24961406,0,1.3763258,0,0)"
       style="display:inline;stroke-width:0.728108">ex:representative</text>
    <text
       text-anchor="middle"
       x="345.21451"
       y="111.86073"
       font-family="Times, serif"
       font-size="10.0648px"
       id="text2928"
       transform="matrix(0.71585026,-0.06158993,0,1.3969402,0,0)"
       style="display:inline;stroke-width:0.718913">ex:reproducedBy</text>
    <text
       text-anchor="middle"
       x="182.97577"
       y="101.86734"
       font-family="Times, serif"
       font-size="10.7532px"
       id="text2912"
       transform="matrix(0.76535709,0.23442193,0,1.3065797,0,0)"
       style="display:inline;stroke-width:0.768085">ex:reportedBy</text>
  </g>
  <g
     inkscape:groupmode="layer"
     id="layer5"
     inkscape:label="directed"
     style="display:none">
    <polygon
       fill="#000000"
       stroke="#000000"
       points="771.73,-271.2 781.86,-268.06 771.99,-264.2 "
       id="polygon2926"
       transform="matrix(0.51463419,0,0,1.0042787,-8.0440401,397.935)"
       style="display:inline" />
    <polygon
       fill="#000000"
       stroke="#000000"
       points="821.58,-260.56 832.01,-258.7 822.69,-253.65 "
       id="polygon2935"
       transform="matrix(0.52902328,0,0,1.0021143,-34.68899,401.82759)"
       style="display:inline" />
    <polygon
       fill="#000000"
       stroke="#000000"
       points="892.94,-211.39 883.02,-207.67 882.87,-214.67 "
       id="polygon2951"
       transform="matrix(0.58401886,0,0,1.0093321,-62.8317,403.32224)"
       style="display:inline" />
    <polygon
       fill="#000000"
       stroke="#000000"
       points="890.48,-159.9 880.18,-157.44 880.9,-164.41 "
       id="polygon2967"
       transform="matrix(0.5666443,0,0,1.0030043,-46.542946,402.25203)"
       style="display:inline" />
    <polygon
       fill="#000000"
       stroke="#000000"
       points="830.91,-113.74 820.5,-111.81 821.57,-118.73 "
       id="polygon2983"
       transform="matrix(0.58162967,0,0,1.0024279,-43.56166,401.68633)"
       style="display:inline" />
    <polygon
       fill="#000000"
       stroke="#000000"
       points="1295.8,-373.2 1294.55,-380.09 1305.02,-378.44 "
       id="polygon2999"
       transform="matrix(0.76242933,0,0,1,-233.14635,401.31903)"
       style="display:inline" />
    <polygon
       fill="#000000"
       stroke="#000000"
       points="1290.39,-319.01 1289.46,-325.94 1299.84,-323.8 "
       id="polygon3015"
       transform="matrix(0.76242933,0,0,1,-233.14635,401.31903)"
       style="display:inline" />
    <polygon
       fill="#000000"
       stroke="#000000"
       points="1277.06,-269.5 1277.06,-276.5 1287.06,-273 "
       id="polygon3031"
       transform="matrix(0.76242933,0,0,1,-233.14635,401.31903)"
       style="display:inline" />
    <polygon
       fill="#000000"
       stroke="#000000"
       points="1274.49,-229.13 1283.93,-224.33 1273.55,-222.19 "
       id="polygon3047"
       transform="matrix(0.76242933,0,0,1,-232.86952,401.3497)"
       style="display:inline" />
    <polygon
       fill="#000000"
       stroke="#000000"
       points="1213.78,-174.51 1223.16,-169.57 1212.75,-167.59 "
       id="polygon3063"
       transform="matrix(0.87220097,0,0,0.99912024,-345.05265,401.13104)"
       style="display:inline" />
    <polygon
       fill="#000000"
       stroke="#000000"
       points="384.09,-214.55 384.73,-221.52 394.37,-217.13 "
       id="polygon2910"
       transform="matrix(0.58785927,0,0,1.0035643,-54.55971,406.92003)"
       style="display:inline" />
  </g>
  <g
     inkscape:groupmode="layer"
     id="layer3"
     inkscape:label="graph"
     style="display:inline">
    <g
       id="node1"
       class="node"
       transform="matrix(0.74911937,0,0,1,-33.02867,401.31903)">
      <title
         id="title2892">Rhttp://a.example/Issue1</title>
      <text
         text-anchor="middle"
         x="119.59"
         y="-238.3"
         font-family="Times, serif"
         font-size="14px"
         id="text2896">http://a.example/Issue1</text>
    </g>
    <text
       text-anchor="middle"
       x="265.08975"
       y="173.11894"
       font-family="Times, serif"
       font-size="12.1172px"
       id="text2903"
       transform="scale(0.86551682,1.155379)"
       style="stroke-width:0.865517">http://a.example/User2</text>
    <path
       fill="none"
       stroke="#000000"
       d="m 99.88451,168.65289 c 22.06485,6.00472 48.70818,13.26317 71.2749,19.39987"
       id="path2908"
       style="stroke-width:0.76223" />
    <text
       text-anchor="middle"
       x="487.5358"
       y="132.01904"
       font-family="Times, serif"
       font-size="14px"
       id="text2919">http://a.example/Thompson.J</text>
    <path
       fill="none"
       stroke="#000000"
       d="m 112.69943,149.8179 c 3.92666,-0.32136 7.82759,-0.64273 11.61015,-0.94402 90.98218,-7.25089 195.65363,-14.85328 264.6918,-19.77425"
       id="path2924"
       style="stroke-width:0.718913" />
    <path
       fill="none"
       stroke="#000000"
       d="m 273.04385,180.98164 c 27.09657,-7.55594 62.29778,-17.48689 93.51016,-26.67628 10.89788,-3.20677 22.57871,-6.73421 33.68291,-10.12136"
       id="path2933"
       style="stroke-width:0.728108" />
    <text
       text-anchor="middle"
       x="487.53613"
       y="193.01903"
       font-family="Times, serif"
       font-size="14px"
       id="text2944">Bob</text>
    <path
       fill="none"
       stroke="#000000"
       d="m 295.59235,193.30042 c 26.4035,-0.12112 56.8776,-0.39364 84.53089,-0.92859 24.87921,-0.48448 53.46693,-1.46353 72.47675,-2.18016"
       id="path2949"
       style="stroke-width:0.767769" />
    <text
       text-anchor="middle"
       x="487.53613"
       y="248.01903"
       font-family="Times, serif"
       font-size="14px"
       id="text2960">Smith</text>
    <path
       fill="none"
       stroke="#000000"
       d="m 282.97205,206.00421 c 9.37796,2.30691 19.14124,4.63388 28.29821,6.68001 50.42001,11.26374 109.76467,22.41714 141.07744,28.1443"
       id="path2965"
       style="stroke-width:0.753888" />
    <text
       text-anchor="middle"
       x="496.53308"
       y="303.01901"
       font-family="Times, serif"
       font-size="14px"
       id="text2976">mail:bob@example.org</text>
    <path
       fill="none"
       stroke="#000000"
       d="m 267.2845,210.29277 c 15.49462,11.55799 36.9044,26.39393 56.42971,36.01724 36.09594,17.79309 77.59522,31.01511 110.23046,39.81643"
       id="path2981"
       style="stroke-width:0.763572" />
    <text
       text-anchor="middle"
       x="896.15906"
       y="19.226412"
       font-family="Times, serif"
       font-size="12.2244px"
       id="text2992"
       transform="scale(0.87317199,1.1452497)"
       style="stroke-width:0.873172">Joe</text>
    <path
       fill="none"
       stroke="#000000"
       d="m 503.08591,111.14903 c 24.38249,-11.93 58.16573,-27.63 88.51042,-38.83 57.09833,-21.08 125.33576,-38.65 162.56518,-47.6"
       id="path2997"
       style="stroke-width:0.873172" />
    <text
       text-anchor="middle"
       x="896.15906"
       y="67.25087"
       font-family="Times, serif"
       font-size="12.2244px"
       id="text3008"
       transform="scale(0.87317199,1.1452497)"
       style="stroke-width:0.873172">Joseph</text>
    <path
       fill="none"
       stroke="#000000"
       d="m 543.60903,115.21903 c 65.85864,-11.59 158.71491,-27.93 206.69459,-36.37"
       id="path3013"
       style="stroke-width:0.873172" />
    <text
       text-anchor="middle"
       x="896.15906"
       y="115.27533"
       font-family="Times, serif"
       font-size="12.2244px"
       id="text3024"
       transform="scale(0.87317199,1.1452497)"
       style="stroke-width:0.873172">Thompson</text>
    <path
       fill="none"
       stroke="#000000"
       d="m 578.02509,128.31903 c 56.1148,0 121.24151,0 162.45844,0"
       id="path3029"
       style="stroke-width:0.873172" />
    <text
       text-anchor="middle"
       x="896.15906"
       y="163.29977"
       font-family="Times, serif"
       font-size="12.2244px"
       id="text3040"
       transform="scale(0.87317199,1.1452497)"
       style="stroke-width:0.873172">tel:+456</text>
    <path
       fill="none"
       stroke="#000000"
       d="m 543.88586,141.4497 c 60.59788,10.67 144.04577,25.35 194.36611,34.2"
       id="path3045"
       style="stroke-width:0.873172" />
    <text
       text-anchor="middle"
       x="896.15906"
       y="210.45107"
       font-family="Times, serif"
       font-size="12.2244px"
       id="text3056"
       transform="scale(0.87317199,1.1452497)"
       style="stroke-width:0.873172">mail:joe@example.org</text>
    <path
       fill="none"
       stroke="#000000"
       d="m 543.88586,141.4497 c 13.66739,4.72584 27.14289,11.16017 38.84783,19.89248 9.74248,7.2736 5.88735,16.83518 15.69962,23.97889 33.90245,24.69825 76.21292,37.89663 114.48509,44.87049"
       id="path3061"
       style="stroke-width:0.933506" />
  </g>
</svg>
